<mxfile host="app.diagrams.net" modified="2023-07-31T04:05:19.039Z" agent="Mozilla/5.0 (Windows NT 10.0; Win64; x64) AppleWebKit/537.36 (KHTML, like Gecko) Chrome/115.0.0.0 Safari/537.36 Edg/115.0.1901.183" etag="It9Bj9iYYY_BdDzLC98_" version="21.6.5" type="github">
  <diagram name="Seite-1" id="rombI2BiqVantB-l1jYc">
    <mxGraphModel dx="1348" dy="749" grid="1" gridSize="10" guides="1" tooltips="1" connect="1" arrows="1" fold="1" page="1" pageScale="1" pageWidth="1169" pageHeight="827" math="0" shadow="0">
      <root>
        <mxCell id="0" />
        <mxCell id="1" parent="0" />
        <mxCell id="A1rPBPFfVe5ZtmJl0HQS-48" value="" style="endArrow=classic;html=1;rounded=0;fillColor=#f8cecc;strokeColor=#EB6B66;strokeWidth=3;exitX=1;exitY=0.5;exitDx=0;exitDy=0;entryX=0;entryY=0.5;entryDx=0;entryDy=0;" edge="1" parent="1" source="AAtS-gTGmYYsvnQiRssh-14" target="A1rPBPFfVe5ZtmJl0HQS-41">
          <mxGeometry width="50" height="50" relative="1" as="geometry">
            <mxPoint x="410" y="239" as="sourcePoint" />
            <mxPoint x="489" y="321" as="targetPoint" />
            <Array as="points">
              <mxPoint x="650" y="480" />
            </Array>
          </mxGeometry>
        </mxCell>
        <mxCell id="AAtS-gTGmYYsvnQiRssh-1" value="Petroleum" style="rounded=1;whiteSpace=wrap;html=1;fontSize=23;fillColor=#f8cecc;strokeColor=#b85450;gradientColor=#ea6b66;" parent="1" vertex="1">
          <mxGeometry x="40" y="39" width="120" height="60" as="geometry" />
        </mxCell>
        <mxCell id="AAtS-gTGmYYsvnQiRssh-2" value="Natural Gas" style="rounded=1;whiteSpace=wrap;html=1;fontSize=23;fillColor=#dae8fc;strokeColor=#6c8ebf;gradientColor=#7ea6e0;" parent="1" vertex="1">
          <mxGeometry x="40" y="760" width="120" height="60" as="geometry" />
        </mxCell>
        <mxCell id="AAtS-gTGmYYsvnQiRssh-3" value="O2/N2" style="rounded=1;whiteSpace=wrap;html=1;fontSize=23;fillColor=#d5e8d4;strokeColor=#82b366;gradientColor=#97d077;" parent="1" vertex="1">
          <mxGeometry x="40" y="1309" width="120" height="60" as="geometry" />
        </mxCell>
        <mxCell id="AAtS-gTGmYYsvnQiRssh-4" value="SO2" style="rounded=1;whiteSpace=wrap;html=1;fontSize=23;fillColor=#a0522d;fontColor=#ffffff;strokeColor=#6D1F00;" parent="1" vertex="1">
          <mxGeometry x="40" y="1423" width="120" height="60" as="geometry" />
        </mxCell>
        <mxCell id="AAtS-gTGmYYsvnQiRssh-10" value="" style="swimlane;whiteSpace=wrap;html=1;fillColor=#f8cecc;strokeColor=#b85450;startSize=10;gradientColor=#ea6b66;" parent="1" vertex="1">
          <mxGeometry x="280" y="40" width="120" height="60" as="geometry">
            <mxRectangle x="460" y="50" width="120" height="40" as="alternateBounds" />
          </mxGeometry>
        </mxCell>
        <mxCell id="AAtS-gTGmYYsvnQiRssh-11" value="Benzene" style="text;html=1;strokeColor=none;fillColor=none;align=center;verticalAlign=middle;whiteSpace=wrap;rounded=0;fontSize=20;" parent="AAtS-gTGmYYsvnQiRssh-10" vertex="1">
          <mxGeometry x="30" y="20" width="60" height="30" as="geometry" />
        </mxCell>
        <mxCell id="AAtS-gTGmYYsvnQiRssh-12" value="" style="swimlane;whiteSpace=wrap;html=1;fillColor=#f8cecc;strokeColor=#b85450;startSize=10;gradientColor=#ea6b66;" parent="1" vertex="1">
          <mxGeometry x="280" y="199" width="120" height="60" as="geometry">
            <mxRectangle x="460" y="50" width="120" height="40" as="alternateBounds" />
          </mxGeometry>
        </mxCell>
        <mxCell id="AAtS-gTGmYYsvnQiRssh-13" value="Xylene" style="text;html=1;strokeColor=none;fillColor=none;align=center;verticalAlign=middle;whiteSpace=wrap;rounded=0;fontSize=20;" parent="AAtS-gTGmYYsvnQiRssh-12" vertex="1">
          <mxGeometry x="30" y="20" width="60" height="30" as="geometry" />
        </mxCell>
        <mxCell id="AAtS-gTGmYYsvnQiRssh-14" value="" style="swimlane;whiteSpace=wrap;html=1;fillColor=#f8cecc;strokeColor=#b85450;startSize=10;gradientColor=#ea6b66;" parent="1" vertex="1">
          <mxGeometry x="280" y="360" width="120" height="60" as="geometry">
            <mxRectangle x="460" y="50" width="120" height="40" as="alternateBounds" />
          </mxGeometry>
        </mxCell>
        <mxCell id="AAtS-gTGmYYsvnQiRssh-15" value="Toluene" style="text;html=1;strokeColor=none;fillColor=none;align=center;verticalAlign=middle;whiteSpace=wrap;rounded=0;fontSize=20;" parent="AAtS-gTGmYYsvnQiRssh-14" vertex="1">
          <mxGeometry x="30" y="20" width="60" height="30" as="geometry" />
        </mxCell>
        <mxCell id="AAtS-gTGmYYsvnQiRssh-18" value="" style="endArrow=classic;html=1;rounded=0;exitX=1;exitY=0.5;exitDx=0;exitDy=0;entryX=0;entryY=0.5;entryDx=0;entryDy=0;fillColor=#f8cecc;strokeColor=#EB6B66;strokeWidth=3;" parent="1" source="AAtS-gTGmYYsvnQiRssh-1" target="AAtS-gTGmYYsvnQiRssh-10" edge="1">
          <mxGeometry width="50" height="50" relative="1" as="geometry">
            <mxPoint x="650" y="187" as="sourcePoint" />
            <mxPoint x="700" y="137" as="targetPoint" />
          </mxGeometry>
        </mxCell>
        <mxCell id="AAtS-gTGmYYsvnQiRssh-19" value="" style="endArrow=classic;html=1;rounded=0;exitX=1;exitY=0.5;exitDx=0;exitDy=0;entryX=0;entryY=0.5;entryDx=0;entryDy=0;fillColor=#f8cecc;strokeColor=#EB6B66;strokeWidth=3;" parent="1" source="AAtS-gTGmYYsvnQiRssh-1" target="AAtS-gTGmYYsvnQiRssh-12" edge="1">
          <mxGeometry width="50" height="50" relative="1" as="geometry">
            <mxPoint x="170" y="77" as="sourcePoint" />
            <mxPoint x="290" y="77" as="targetPoint" />
          </mxGeometry>
        </mxCell>
        <mxCell id="AAtS-gTGmYYsvnQiRssh-20" value="" style="endArrow=classic;html=1;rounded=0;exitX=1;exitY=0.5;exitDx=0;exitDy=0;entryX=0;entryY=0.5;entryDx=0;entryDy=0;fillColor=#f8cecc;strokeColor=#EB6B66;strokeWidth=3;" parent="1" source="AAtS-gTGmYYsvnQiRssh-1" target="AAtS-gTGmYYsvnQiRssh-14" edge="1">
          <mxGeometry width="50" height="50" relative="1" as="geometry">
            <mxPoint x="170" y="130" as="sourcePoint" />
            <mxPoint x="290" y="220" as="targetPoint" />
          </mxGeometry>
        </mxCell>
        <mxCell id="AAtS-gTGmYYsvnQiRssh-21" value="" style="endArrow=classic;html=1;rounded=0;exitX=1;exitY=0.5;exitDx=0;exitDy=0;entryX=0;entryY=0.5;entryDx=0;entryDy=0;fillColor=#f8cecc;strokeColor=#EB6B66;strokeWidth=3;" parent="1" source="AAtS-gTGmYYsvnQiRssh-1" target="AAtS-gTGmYYsvnQiRssh-75" edge="1">
          <mxGeometry width="50" height="50" relative="1" as="geometry">
            <mxPoint x="170" y="130" as="sourcePoint" />
            <mxPoint x="280" y="380" as="targetPoint" />
          </mxGeometry>
        </mxCell>
        <mxCell id="AAtS-gTGmYYsvnQiRssh-22" value="" style="swimlane;whiteSpace=wrap;html=1;fillColor=#dae8fc;strokeColor=#6c8ebf;startSize=10;gradientColor=#7ea6e0;" parent="1" vertex="1">
          <mxGeometry x="280" y="761" width="120" height="60" as="geometry">
            <mxRectangle x="460" y="50" width="120" height="40" as="alternateBounds" />
          </mxGeometry>
        </mxCell>
        <mxCell id="AAtS-gTGmYYsvnQiRssh-23" value="Ethane, Ethene" style="text;html=1;strokeColor=none;fillColor=none;align=center;verticalAlign=middle;whiteSpace=wrap;rounded=0;fontSize=20;" parent="AAtS-gTGmYYsvnQiRssh-22" vertex="1">
          <mxGeometry x="30" y="20" width="60" height="30" as="geometry" />
        </mxCell>
        <mxCell id="AAtS-gTGmYYsvnQiRssh-24" value="" style="swimlane;whiteSpace=wrap;html=1;fillColor=#dae8fc;strokeColor=#6c8ebf;startSize=10;gradientColor=#7ea6e0;" parent="1" vertex="1">
          <mxGeometry x="280" y="1106" width="120" height="60" as="geometry">
            <mxRectangle x="460" y="50" width="120" height="40" as="alternateBounds" />
          </mxGeometry>
        </mxCell>
        <mxCell id="AAtS-gTGmYYsvnQiRssh-25" value="CO/H2" style="text;html=1;strokeColor=none;fillColor=none;align=center;verticalAlign=middle;whiteSpace=wrap;rounded=0;fontSize=20;" parent="AAtS-gTGmYYsvnQiRssh-24" vertex="1">
          <mxGeometry x="30" y="20" width="60" height="30" as="geometry" />
        </mxCell>
        <mxCell id="AAtS-gTGmYYsvnQiRssh-31" value="" style="rounded=0;whiteSpace=wrap;html=1;fillColor=#d5e8d4;strokeColor=#82b366;" parent="AAtS-gTGmYYsvnQiRssh-24" vertex="1">
          <mxGeometry y="10" width="120" height="10" as="geometry" />
        </mxCell>
        <mxCell id="AAtS-gTGmYYsvnQiRssh-26" value="" style="swimlane;whiteSpace=wrap;html=1;fillColor=#d5e8d4;strokeColor=#82b366;startSize=10;gradientColor=#97d077;" parent="1" vertex="1">
          <mxGeometry x="456" y="1309" width="120" height="60" as="geometry">
            <mxRectangle x="460" y="50" width="120" height="40" as="alternateBounds" />
          </mxGeometry>
        </mxCell>
        <mxCell id="AAtS-gTGmYYsvnQiRssh-27" value="Ammonia" style="text;html=1;strokeColor=none;fillColor=none;align=center;verticalAlign=middle;whiteSpace=wrap;rounded=0;fontSize=20;" parent="AAtS-gTGmYYsvnQiRssh-26" vertex="1">
          <mxGeometry x="30" y="20" width="60" height="30" as="geometry" />
        </mxCell>
        <mxCell id="AAtS-gTGmYYsvnQiRssh-102" value="" style="rounded=0;whiteSpace=wrap;html=1;fillColor=#dae8fc;strokeColor=#6c8ebf;gradientColor=#7ea6e0;" parent="AAtS-gTGmYYsvnQiRssh-26" vertex="1">
          <mxGeometry x="-1" y="11" width="120" height="8" as="geometry" />
        </mxCell>
        <mxCell id="AAtS-gTGmYYsvnQiRssh-28" value="" style="swimlane;whiteSpace=wrap;html=1;fillColor=#a0522d;strokeColor=#6D1F00;startSize=10;fontColor=#ffffff;" parent="1" vertex="1">
          <mxGeometry x="280" y="1423" width="120" height="60" as="geometry">
            <mxRectangle x="460" y="50" width="120" height="40" as="alternateBounds" />
          </mxGeometry>
        </mxCell>
        <mxCell id="AAtS-gTGmYYsvnQiRssh-29" value="H2SO4" style="text;html=1;strokeColor=none;fillColor=none;align=center;verticalAlign=middle;whiteSpace=wrap;rounded=0;fontSize=20;" parent="AAtS-gTGmYYsvnQiRssh-28" vertex="1">
          <mxGeometry x="30" y="20" width="60" height="30" as="geometry" />
        </mxCell>
        <mxCell id="AAtS-gTGmYYsvnQiRssh-32" value="" style="endArrow=classic;html=1;rounded=0;exitX=1;exitY=0.5;exitDx=0;exitDy=0;entryX=0;entryY=0.5;entryDx=0;entryDy=0;fillColor=#dae8fc;strokeColor=#6C8EBF;strokeWidth=3;" parent="1" source="AAtS-gTGmYYsvnQiRssh-2" target="AAtS-gTGmYYsvnQiRssh-22" edge="1">
          <mxGeometry width="50" height="50" relative="1" as="geometry">
            <mxPoint x="170" y="438" as="sourcePoint" />
            <mxPoint x="290" y="699" as="targetPoint" />
          </mxGeometry>
        </mxCell>
        <mxCell id="AAtS-gTGmYYsvnQiRssh-33" value="" style="endArrow=classic;html=1;rounded=0;exitX=1;exitY=0.5;exitDx=0;exitDy=0;fillColor=#dae8fc;strokeColor=#6C8EBF;strokeWidth=3;entryX=0;entryY=0;entryDx=0;entryDy=0;" parent="1" source="AAtS-gTGmYYsvnQiRssh-2" target="AAtS-gTGmYYsvnQiRssh-24" edge="1">
          <mxGeometry width="50" height="50" relative="1" as="geometry">
            <mxPoint x="170" y="903" as="sourcePoint" />
            <mxPoint x="280" y="992" as="targetPoint" />
          </mxGeometry>
        </mxCell>
        <mxCell id="AAtS-gTGmYYsvnQiRssh-34" value="" style="endArrow=classic;html=1;rounded=0;exitX=1;exitY=0.5;exitDx=0;exitDy=0;fillColor=#d5e8d4;strokeColor=#82b366;strokeWidth=3;entryX=0;entryY=0.5;entryDx=0;entryDy=0;" parent="1" source="AAtS-gTGmYYsvnQiRssh-3" target="AAtS-gTGmYYsvnQiRssh-26" edge="1">
          <mxGeometry width="50" height="50" relative="1" as="geometry">
            <mxPoint x="170" y="1072" as="sourcePoint" />
            <mxPoint x="290" y="1171" as="targetPoint" />
          </mxGeometry>
        </mxCell>
        <mxCell id="AAtS-gTGmYYsvnQiRssh-35" value="" style="endArrow=classic;html=1;rounded=0;fillColor=#dae8fc;strokeColor=#6C8EBF;strokeWidth=3;entryX=0.5;entryY=0;entryDx=0;entryDy=0;exitX=0.5;exitY=1;exitDx=0;exitDy=0;" parent="1" source="AAtS-gTGmYYsvnQiRssh-24" target="AAtS-gTGmYYsvnQiRssh-26" edge="1">
          <mxGeometry width="50" height="50" relative="1" as="geometry">
            <mxPoint x="340" y="1106" as="sourcePoint" />
            <mxPoint x="290" y="1046" as="targetPoint" />
          </mxGeometry>
        </mxCell>
        <mxCell id="AAtS-gTGmYYsvnQiRssh-38" value="" style="endArrow=classic;html=1;rounded=0;exitX=1;exitY=0.5;exitDx=0;exitDy=0;fillColor=#a20025;strokeColor=#6F0000;strokeWidth=3;entryX=0;entryY=0.5;entryDx=0;entryDy=0;" parent="1" source="AAtS-gTGmYYsvnQiRssh-4" target="AAtS-gTGmYYsvnQiRssh-28" edge="1">
          <mxGeometry width="50" height="50" relative="1" as="geometry">
            <mxPoint x="180" y="1359" as="sourcePoint" />
            <mxPoint x="460" y="1351" as="targetPoint" />
          </mxGeometry>
        </mxCell>
        <mxCell id="AAtS-gTGmYYsvnQiRssh-39" value="" style="swimlane;whiteSpace=wrap;html=1;fillColor=#d5e8d4;strokeColor=#82b366;startSize=10;gradientColor=#97d077;" parent="1" vertex="1">
          <mxGeometry x="660" y="1311" width="120" height="60" as="geometry">
            <mxRectangle x="460" y="50" width="120" height="40" as="alternateBounds" />
          </mxGeometry>
        </mxCell>
        <mxCell id="AAtS-gTGmYYsvnQiRssh-40" value="Nitric Acid" style="text;html=1;strokeColor=none;fillColor=none;align=center;verticalAlign=middle;whiteSpace=wrap;rounded=0;fontSize=19;" parent="AAtS-gTGmYYsvnQiRssh-39" vertex="1">
          <mxGeometry x="30" y="26" width="60" height="30" as="geometry" />
        </mxCell>
        <mxCell id="AAtS-gTGmYYsvnQiRssh-108" value="" style="rounded=0;whiteSpace=wrap;html=1;fillColor=#dae8fc;strokeColor=#6c8ebf;gradientColor=#7ea6e0;" parent="AAtS-gTGmYYsvnQiRssh-39" vertex="1">
          <mxGeometry y="12" width="120" height="8" as="geometry" />
        </mxCell>
        <mxCell id="AAtS-gTGmYYsvnQiRssh-42" value="" style="swimlane;whiteSpace=wrap;html=1;fillColor=#dae8fc;strokeColor=#6c8ebf;startSize=10;gradientColor=#7ea6e0;" parent="1" vertex="1">
          <mxGeometry x="465" y="1106" width="120" height="60" as="geometry">
            <mxRectangle x="460" y="50" width="120" height="40" as="alternateBounds" />
          </mxGeometry>
        </mxCell>
        <mxCell id="AAtS-gTGmYYsvnQiRssh-43" value="Methanol" style="text;html=1;strokeColor=none;fillColor=none;align=center;verticalAlign=middle;whiteSpace=wrap;rounded=0;fontSize=20;" parent="AAtS-gTGmYYsvnQiRssh-42" vertex="1">
          <mxGeometry x="30" y="20" width="60" height="30" as="geometry" />
        </mxCell>
        <mxCell id="AAtS-gTGmYYsvnQiRssh-44" value="" style="endArrow=classic;html=1;rounded=0;fillColor=#dae8fc;strokeColor=#6C8EBF;strokeWidth=3;entryX=0;entryY=0.5;entryDx=0;entryDy=0;exitX=1;exitY=0.5;exitDx=0;exitDy=0;" parent="1" source="AAtS-gTGmYYsvnQiRssh-24" target="AAtS-gTGmYYsvnQiRssh-42" edge="1">
          <mxGeometry width="50" height="50" relative="1" as="geometry">
            <mxPoint x="350" y="1137" as="sourcePoint" />
            <mxPoint x="526" y="1261" as="targetPoint" />
          </mxGeometry>
        </mxCell>
        <mxCell id="AAtS-gTGmYYsvnQiRssh-45" value="" style="swimlane;whiteSpace=wrap;html=1;fillColor=#dae8fc;strokeColor=#6c8ebf;startSize=10;gradientColor=#7ea6e0;" parent="1" vertex="1">
          <mxGeometry x="479" y="920" width="120" height="60" as="geometry">
            <mxRectangle x="460" y="50" width="120" height="40" as="alternateBounds" />
          </mxGeometry>
        </mxCell>
        <mxCell id="AAtS-gTGmYYsvnQiRssh-46" value="Ethylen-dichloride" style="text;html=1;strokeColor=none;fillColor=none;align=center;verticalAlign=middle;whiteSpace=wrap;rounded=0;fontSize=20;" parent="AAtS-gTGmYYsvnQiRssh-45" vertex="1">
          <mxGeometry x="30" y="20" width="60" height="30" as="geometry" />
        </mxCell>
        <mxCell id="AAtS-gTGmYYsvnQiRssh-47" value="" style="swimlane;whiteSpace=wrap;html=1;startSize=10;fillColor=#f5f5f5;strokeColor=#666666;gradientColor=#b3b3b3;" parent="1" vertex="1">
          <mxGeometry x="280" y="987" width="120" height="60" as="geometry">
            <mxRectangle x="460" y="50" width="120" height="40" as="alternateBounds" />
          </mxGeometry>
        </mxCell>
        <mxCell id="AAtS-gTGmYYsvnQiRssh-48" value="Chlorine" style="text;html=1;strokeColor=none;fillColor=none;align=center;verticalAlign=middle;whiteSpace=wrap;rounded=0;fontSize=20;" parent="AAtS-gTGmYYsvnQiRssh-47" vertex="1">
          <mxGeometry x="30" y="20" width="60" height="30" as="geometry" />
        </mxCell>
        <mxCell id="AAtS-gTGmYYsvnQiRssh-50" value="" style="swimlane;whiteSpace=wrap;html=1;fillColor=#f8cecc;strokeColor=#b85450;startSize=10;gradientColor=#ea6b66;align=center;" parent="1" vertex="1">
          <mxGeometry x="479" y="40" width="120" height="60" as="geometry">
            <mxRectangle x="460" y="50" width="120" height="40" as="alternateBounds" />
          </mxGeometry>
        </mxCell>
        <mxCell id="AAtS-gTGmYYsvnQiRssh-51" value="Ethyl-benzene" style="text;html=1;strokeColor=none;fillColor=none;align=center;verticalAlign=top;whiteSpace=wrap;rounded=0;fontSize=19;" parent="AAtS-gTGmYYsvnQiRssh-50" vertex="1">
          <mxGeometry x="30" y="10" width="60" height="30" as="geometry" />
        </mxCell>
        <mxCell id="AAtS-gTGmYYsvnQiRssh-100" value="" style="rounded=0;whiteSpace=wrap;html=1;fillColor=#dae8fc;strokeColor=#6c8ebf;gradientColor=#7ea6e0;" parent="AAtS-gTGmYYsvnQiRssh-50" vertex="1">
          <mxGeometry y="10" width="120" height="8" as="geometry" />
        </mxCell>
        <mxCell id="AAtS-gTGmYYsvnQiRssh-52" value="" style="swimlane;whiteSpace=wrap;html=1;fillColor=#f8cecc;strokeColor=#b85450;startSize=10;gradientColor=#ea6b66;align=center;" parent="1" vertex="1">
          <mxGeometry x="479" y="122" width="120" height="60" as="geometry">
            <mxRectangle x="460" y="50" width="120" height="40" as="alternateBounds" />
          </mxGeometry>
        </mxCell>
        <mxCell id="AAtS-gTGmYYsvnQiRssh-53" value="Cyclo-hexane" style="text;html=1;strokeColor=none;fillColor=none;align=center;verticalAlign=middle;whiteSpace=wrap;rounded=0;fontSize=20;" parent="AAtS-gTGmYYsvnQiRssh-52" vertex="1">
          <mxGeometry x="30" y="20" width="60" height="30" as="geometry" />
        </mxCell>
        <mxCell id="AAtS-gTGmYYsvnQiRssh-54" value="" style="swimlane;whiteSpace=wrap;html=1;fillColor=#f8cecc;strokeColor=#b85450;startSize=10;gradientColor=#ea6b66;align=center;" parent="1" vertex="1">
          <mxGeometry x="479" y="201" width="120" height="60" as="geometry">
            <mxRectangle x="460" y="50" width="120" height="40" as="alternateBounds" />
          </mxGeometry>
        </mxCell>
        <mxCell id="AAtS-gTGmYYsvnQiRssh-55" value="Cumene" style="text;html=1;strokeColor=none;fillColor=none;align=center;verticalAlign=middle;whiteSpace=wrap;rounded=0;fontSize=20;" parent="AAtS-gTGmYYsvnQiRssh-54" vertex="1">
          <mxGeometry x="30" y="20" width="60" height="30" as="geometry" />
        </mxCell>
        <mxCell id="AAtS-gTGmYYsvnQiRssh-56" value="" style="endArrow=classic;html=1;rounded=0;exitX=1;exitY=0.5;exitDx=0;exitDy=0;entryX=0;entryY=0.5;entryDx=0;entryDy=0;fillColor=#f8cecc;strokeColor=#EB6B66;strokeWidth=3;" parent="1" source="AAtS-gTGmYYsvnQiRssh-10" target="AAtS-gTGmYYsvnQiRssh-50" edge="1">
          <mxGeometry width="50" height="50" relative="1" as="geometry">
            <mxPoint x="170" y="129" as="sourcePoint" />
            <mxPoint x="290" y="130" as="targetPoint" />
          </mxGeometry>
        </mxCell>
        <mxCell id="AAtS-gTGmYYsvnQiRssh-57" value="" style="endArrow=classic;html=1;rounded=0;entryX=0;entryY=0.5;entryDx=0;entryDy=0;fillColor=#f8cecc;strokeColor=#EB6B66;strokeWidth=3;" parent="1" target="AAtS-gTGmYYsvnQiRssh-54" edge="1">
          <mxGeometry width="50" height="50" relative="1" as="geometry">
            <mxPoint x="400" y="70" as="sourcePoint" />
            <mxPoint x="460" y="100" as="targetPoint" />
          </mxGeometry>
        </mxCell>
        <mxCell id="AAtS-gTGmYYsvnQiRssh-58" value="" style="endArrow=classic;html=1;rounded=0;fillColor=#f8cecc;strokeColor=#EB6B66;strokeWidth=3;entryX=0;entryY=0.5;entryDx=0;entryDy=0;exitX=1;exitY=0.5;exitDx=0;exitDy=0;" parent="1" source="AAtS-gTGmYYsvnQiRssh-10" target="AAtS-gTGmYYsvnQiRssh-52" edge="1">
          <mxGeometry width="50" height="50" relative="1" as="geometry">
            <mxPoint x="400" y="120" as="sourcePoint" />
            <mxPoint x="450" y="160" as="targetPoint" />
          </mxGeometry>
        </mxCell>
        <mxCell id="AAtS-gTGmYYsvnQiRssh-59" value="" style="swimlane;whiteSpace=wrap;html=1;fillColor=#f8cecc;strokeColor=#b85450;startSize=10;gradientColor=#ea6b66;align=center;" parent="1" vertex="1">
          <mxGeometry x="479" y="281" width="120" height="60" as="geometry">
            <mxRectangle x="460" y="50" width="120" height="40" as="alternateBounds" />
          </mxGeometry>
        </mxCell>
        <mxCell id="AAtS-gTGmYYsvnQiRssh-60" value="p-Xylene" style="text;html=1;strokeColor=none;fillColor=none;align=center;verticalAlign=middle;whiteSpace=wrap;rounded=0;fontSize=20;" parent="AAtS-gTGmYYsvnQiRssh-59" vertex="1">
          <mxGeometry x="30" y="20" width="60" height="30" as="geometry" />
        </mxCell>
        <mxCell id="AAtS-gTGmYYsvnQiRssh-61" value="" style="endArrow=classic;html=1;rounded=0;fillColor=#f8cecc;strokeColor=#EB6B66;strokeWidth=3;exitX=1;exitY=0.5;exitDx=0;exitDy=0;entryX=0;entryY=0.5;entryDx=0;entryDy=0;" parent="1" source="AAtS-gTGmYYsvnQiRssh-12" target="AAtS-gTGmYYsvnQiRssh-59" edge="1">
          <mxGeometry width="50" height="50" relative="1" as="geometry">
            <mxPoint x="410" y="130" as="sourcePoint" />
            <mxPoint x="450" y="310" as="targetPoint" />
          </mxGeometry>
        </mxCell>
        <mxCell id="AAtS-gTGmYYsvnQiRssh-63" value="" style="swimlane;whiteSpace=wrap;html=1;fillColor=#f8cecc;strokeColor=#b85450;startSize=10;gradientColor=#ea6b66;align=center;" parent="1" vertex="1">
          <mxGeometry x="479" y="466" width="120" height="60" as="geometry">
            <mxRectangle x="460" y="50" width="120" height="40" as="alternateBounds" />
          </mxGeometry>
        </mxCell>
        <mxCell id="AAtS-gTGmYYsvnQiRssh-64" value="i-Butylene" style="text;html=1;strokeColor=none;fillColor=none;align=center;verticalAlign=middle;whiteSpace=wrap;rounded=0;fontSize=20;" parent="AAtS-gTGmYYsvnQiRssh-63" vertex="1">
          <mxGeometry x="30" y="21" width="60" height="30" as="geometry" />
        </mxCell>
        <mxCell id="AAtS-gTGmYYsvnQiRssh-65" value="" style="swimlane;whiteSpace=wrap;html=1;fillColor=#f8cecc;strokeColor=#b85450;startSize=10;gradientColor=#ea6b66;align=center;" parent="1" vertex="1">
          <mxGeometry x="479" y="585" width="120" height="60" as="geometry">
            <mxRectangle x="460" y="50" width="120" height="40" as="alternateBounds" />
          </mxGeometry>
        </mxCell>
        <mxCell id="AAtS-gTGmYYsvnQiRssh-66" value="Buta-diene" style="text;html=1;strokeColor=none;fillColor=none;align=center;verticalAlign=middle;whiteSpace=wrap;rounded=0;fontSize=20;" parent="AAtS-gTGmYYsvnQiRssh-65" vertex="1">
          <mxGeometry x="30" y="20" width="60" height="30" as="geometry" />
        </mxCell>
        <mxCell id="AAtS-gTGmYYsvnQiRssh-71" value="" style="swimlane;whiteSpace=wrap;html=1;fillColor=#dae8fc;strokeColor=#6c8ebf;startSize=10;gradientColor=#7ea6e0;" parent="1" vertex="1">
          <mxGeometry x="479" y="761" width="120" height="60" as="geometry">
            <mxRectangle x="460" y="50" width="120" height="40" as="alternateBounds" />
          </mxGeometry>
        </mxCell>
        <mxCell id="AAtS-gTGmYYsvnQiRssh-72" value="Ethylene-oxid" style="text;html=1;strokeColor=none;fillColor=none;align=center;verticalAlign=middle;whiteSpace=wrap;rounded=0;fontSize=19;" parent="AAtS-gTGmYYsvnQiRssh-71" vertex="1">
          <mxGeometry x="30" y="25" width="60" height="30" as="geometry" />
        </mxCell>
        <mxCell id="AAtS-gTGmYYsvnQiRssh-101" value="" style="rounded=0;whiteSpace=wrap;html=1;fillColor=#d5e8d4;strokeColor=#82b366;" parent="AAtS-gTGmYYsvnQiRssh-71" vertex="1">
          <mxGeometry y="10" width="120" height="8" as="geometry" />
        </mxCell>
        <mxCell id="AAtS-gTGmYYsvnQiRssh-73" value="" style="swimlane;whiteSpace=wrap;html=1;fillColor=#dae8fc;strokeColor=#6c8ebf;startSize=10;gradientColor=#7ea6e0;" parent="1" vertex="1">
          <mxGeometry x="479" y="840" width="120" height="60" as="geometry">
            <mxRectangle x="460" y="50" width="120" height="40" as="alternateBounds" />
          </mxGeometry>
        </mxCell>
        <mxCell id="AAtS-gTGmYYsvnQiRssh-74" value="Propylene" style="text;html=1;strokeColor=none;fillColor=none;align=center;verticalAlign=middle;whiteSpace=wrap;rounded=0;fontSize=20;" parent="AAtS-gTGmYYsvnQiRssh-73" vertex="1">
          <mxGeometry x="30" y="20" width="60" height="30" as="geometry" />
        </mxCell>
        <mxCell id="AAtS-gTGmYYsvnQiRssh-75" value="" style="swimlane;whiteSpace=wrap;html=1;fillColor=#f8cecc;strokeColor=#b85450;startSize=10;gradientColor=#ea6b66;" parent="1" vertex="1">
          <mxGeometry x="280" y="521" width="120" height="60" as="geometry">
            <mxRectangle x="460" y="50" width="120" height="40" as="alternateBounds" />
          </mxGeometry>
        </mxCell>
        <mxCell id="AAtS-gTGmYYsvnQiRssh-76" value="Butanes" style="text;html=1;strokeColor=none;fillColor=none;align=center;verticalAlign=middle;whiteSpace=wrap;rounded=0;fontSize=20;" parent="AAtS-gTGmYYsvnQiRssh-75" vertex="1">
          <mxGeometry x="30" y="20" width="60" height="30" as="geometry" />
        </mxCell>
        <mxCell id="AAtS-gTGmYYsvnQiRssh-78" value="" style="endArrow=classic;html=1;rounded=0;fillColor=#f8cecc;strokeColor=#EB6B66;strokeWidth=3;exitX=1;exitY=0.5;exitDx=0;exitDy=0;entryX=0;entryY=0.5;entryDx=0;entryDy=0;" parent="1" source="AAtS-gTGmYYsvnQiRssh-75" target="AAtS-gTGmYYsvnQiRssh-63" edge="1">
          <mxGeometry width="50" height="50" relative="1" as="geometry">
            <mxPoint x="410" y="201" as="sourcePoint" />
            <mxPoint x="489" y="287" as="targetPoint" />
          </mxGeometry>
        </mxCell>
        <mxCell id="AAtS-gTGmYYsvnQiRssh-79" value="" style="endArrow=classic;html=1;rounded=0;fillColor=#f8cecc;strokeColor=#EB6B66;strokeWidth=3;exitX=1;exitY=0.5;exitDx=0;exitDy=0;entryX=0;entryY=0.5;entryDx=0;entryDy=0;" parent="1" source="AAtS-gTGmYYsvnQiRssh-75" target="AAtS-gTGmYYsvnQiRssh-65" edge="1">
          <mxGeometry width="50" height="50" relative="1" as="geometry">
            <mxPoint x="410" y="441" as="sourcePoint" />
            <mxPoint x="489" y="370" as="targetPoint" />
          </mxGeometry>
        </mxCell>
        <mxCell id="AAtS-gTGmYYsvnQiRssh-83" value="" style="endArrow=classic;html=1;rounded=0;entryX=0;entryY=0.5;entryDx=0;entryDy=0;fillColor=#dae8fc;strokeColor=#6C8EBF;strokeWidth=3;exitX=1;exitY=0.5;exitDx=0;exitDy=0;" parent="1" source="AAtS-gTGmYYsvnQiRssh-22" target="AAtS-gTGmYYsvnQiRssh-71" edge="1">
          <mxGeometry width="50" height="50" relative="1" as="geometry">
            <mxPoint x="400" y="770" as="sourcePoint" />
            <mxPoint x="290" y="801" as="targetPoint" />
          </mxGeometry>
        </mxCell>
        <mxCell id="AAtS-gTGmYYsvnQiRssh-84" value="" style="endArrow=classic;html=1;rounded=0;entryX=0;entryY=0.5;entryDx=0;entryDy=0;fillColor=#dae8fc;strokeColor=#6C8EBF;strokeWidth=3;exitX=1;exitY=0.5;exitDx=0;exitDy=0;" parent="1" source="AAtS-gTGmYYsvnQiRssh-22" target="AAtS-gTGmYYsvnQiRssh-73" edge="1">
          <mxGeometry width="50" height="50" relative="1" as="geometry">
            <mxPoint x="410" y="800" as="sourcePoint" />
            <mxPoint x="489" y="801" as="targetPoint" />
          </mxGeometry>
        </mxCell>
        <mxCell id="AAtS-gTGmYYsvnQiRssh-85" value="" style="endArrow=classic;html=1;rounded=0;entryX=0;entryY=0.5;entryDx=0;entryDy=0;fillColor=#dae8fc;strokeColor=#6C8EBF;strokeWidth=3;exitX=1;exitY=0.5;exitDx=0;exitDy=0;" parent="1" source="AAtS-gTGmYYsvnQiRssh-22" target="AAtS-gTGmYYsvnQiRssh-45" edge="1">
          <mxGeometry width="50" height="50" relative="1" as="geometry">
            <mxPoint x="400" y="770" as="sourcePoint" />
            <mxPoint x="489" y="880" as="targetPoint" />
          </mxGeometry>
        </mxCell>
        <mxCell id="AAtS-gTGmYYsvnQiRssh-86" value="" style="endArrow=classic;html=1;rounded=0;fillColor=#dae8fc;strokeColor=#6C8EBF;strokeWidth=3;exitX=1;exitY=0.5;exitDx=0;exitDy=0;entryX=0;entryY=0.5;entryDx=0;entryDy=0;" parent="1" source="AAtS-gTGmYYsvnQiRssh-47" target="AAtS-gTGmYYsvnQiRssh-45" edge="1">
          <mxGeometry width="50" height="50" relative="1" as="geometry">
            <mxPoint x="410" y="801" as="sourcePoint" />
            <mxPoint x="470" y="1010" as="targetPoint" />
          </mxGeometry>
        </mxCell>
        <mxCell id="AAtS-gTGmYYsvnQiRssh-87" value="" style="swimlane;whiteSpace=wrap;html=1;fillColor=#dae8fc;strokeColor=#6c8ebf;startSize=10;gradientColor=#7ea6e0;" parent="1" vertex="1">
          <mxGeometry x="660" y="920" width="120" height="60" as="geometry">
            <mxRectangle x="460" y="50" width="120" height="40" as="alternateBounds" />
          </mxGeometry>
        </mxCell>
        <mxCell id="AAtS-gTGmYYsvnQiRssh-88" value="Vinyl-chloride" style="text;html=1;strokeColor=none;fillColor=none;align=center;verticalAlign=middle;whiteSpace=wrap;rounded=0;fontSize=20;" parent="AAtS-gTGmYYsvnQiRssh-87" vertex="1">
          <mxGeometry x="30" y="20" width="60" height="30" as="geometry" />
        </mxCell>
        <mxCell id="AAtS-gTGmYYsvnQiRssh-89" value="" style="swimlane;whiteSpace=wrap;html=1;fillColor=#dae8fc;strokeColor=#6c8ebf;startSize=10;gradientColor=#7ea6e0;" parent="1" vertex="1">
          <mxGeometry x="660" y="850" width="120" height="60" as="geometry">
            <mxRectangle x="460" y="50" width="120" height="40" as="alternateBounds" />
          </mxGeometry>
        </mxCell>
        <mxCell id="AAtS-gTGmYYsvnQiRssh-90" value="Acrylo-nitril" style="text;html=1;strokeColor=none;fillColor=none;align=center;verticalAlign=middle;whiteSpace=wrap;rounded=0;fontSize=20;" parent="AAtS-gTGmYYsvnQiRssh-89" vertex="1">
          <mxGeometry x="30" y="20" width="60" height="30" as="geometry" />
        </mxCell>
        <mxCell id="AAtS-gTGmYYsvnQiRssh-91" value="" style="swimlane;whiteSpace=wrap;html=1;fillColor=#dae8fc;strokeColor=#6c8ebf;startSize=10;gradientColor=#7ea6e0;" parent="1" vertex="1">
          <mxGeometry x="660" y="780" width="120" height="60" as="geometry">
            <mxRectangle x="460" y="50" width="120" height="40" as="alternateBounds" />
          </mxGeometry>
        </mxCell>
        <mxCell id="AAtS-gTGmYYsvnQiRssh-92" value="Propylen-oxid" style="text;html=1;strokeColor=none;fillColor=none;align=center;verticalAlign=middle;whiteSpace=wrap;rounded=0;fontSize=20;" parent="AAtS-gTGmYYsvnQiRssh-91" vertex="1">
          <mxGeometry x="30" y="20" width="60" height="30" as="geometry" />
        </mxCell>
        <mxCell id="AAtS-gTGmYYsvnQiRssh-93" value="" style="swimlane;whiteSpace=wrap;html=1;fillColor=#dae8fc;strokeColor=#6c8ebf;startSize=10;gradientColor=#7ea6e0;" parent="1" vertex="1">
          <mxGeometry x="660" y="710" width="120" height="60" as="geometry">
            <mxRectangle x="460" y="50" width="120" height="40" as="alternateBounds" />
          </mxGeometry>
        </mxCell>
        <mxCell id="AAtS-gTGmYYsvnQiRssh-94" value="Ethylen-glykol" style="text;html=1;strokeColor=none;fillColor=none;align=center;verticalAlign=middle;whiteSpace=wrap;rounded=0;fontSize=20;" parent="AAtS-gTGmYYsvnQiRssh-93" vertex="1">
          <mxGeometry x="30" y="20" width="60" height="30" as="geometry" />
        </mxCell>
        <mxCell id="AAtS-gTGmYYsvnQiRssh-95" value="" style="endArrow=classic;html=1;rounded=0;entryX=0;entryY=0.5;entryDx=0;entryDy=0;fillColor=#dae8fc;strokeColor=#6C8EBF;strokeWidth=3;exitX=1;exitY=0.5;exitDx=0;exitDy=0;" parent="1" source="AAtS-gTGmYYsvnQiRssh-71" target="AAtS-gTGmYYsvnQiRssh-93" edge="1">
          <mxGeometry width="50" height="50" relative="1" as="geometry">
            <mxPoint x="410" y="801" as="sourcePoint" />
            <mxPoint x="489" y="801" as="targetPoint" />
          </mxGeometry>
        </mxCell>
        <mxCell id="AAtS-gTGmYYsvnQiRssh-96" value="" style="endArrow=classic;html=1;rounded=0;entryX=0;entryY=0.5;entryDx=0;entryDy=0;fillColor=#dae8fc;strokeColor=#6C8EBF;strokeWidth=3;exitX=1;exitY=0.5;exitDx=0;exitDy=0;" parent="1" source="AAtS-gTGmYYsvnQiRssh-73" target="AAtS-gTGmYYsvnQiRssh-91" edge="1">
          <mxGeometry width="50" height="50" relative="1" as="geometry">
            <mxPoint x="600" y="800" as="sourcePoint" />
            <mxPoint x="670" y="750" as="targetPoint" />
          </mxGeometry>
        </mxCell>
        <mxCell id="AAtS-gTGmYYsvnQiRssh-97" value="" style="endArrow=classic;html=1;rounded=0;entryX=0;entryY=0.5;entryDx=0;entryDy=0;fillColor=#dae8fc;strokeColor=#6C8EBF;strokeWidth=3;exitX=1;exitY=0.5;exitDx=0;exitDy=0;" parent="1" source="AAtS-gTGmYYsvnQiRssh-73" target="AAtS-gTGmYYsvnQiRssh-89" edge="1">
          <mxGeometry width="50" height="50" relative="1" as="geometry">
            <mxPoint x="600" y="790" as="sourcePoint" />
            <mxPoint x="670" y="820" as="targetPoint" />
          </mxGeometry>
        </mxCell>
        <mxCell id="AAtS-gTGmYYsvnQiRssh-99" value="" style="endArrow=classic;html=1;rounded=0;entryX=0;entryY=0.5;entryDx=0;entryDy=0;fillColor=#dae8fc;strokeColor=#6C8EBF;strokeWidth=3;exitX=1;exitY=0.5;exitDx=0;exitDy=0;" parent="1" source="AAtS-gTGmYYsvnQiRssh-45" target="AAtS-gTGmYYsvnQiRssh-87" edge="1">
          <mxGeometry width="50" height="50" relative="1" as="geometry">
            <mxPoint x="610" y="800" as="sourcePoint" />
            <mxPoint x="670" y="890" as="targetPoint" />
          </mxGeometry>
        </mxCell>
        <mxCell id="A1rPBPFfVe5ZtmJl0HQS-2" value="" style="swimlane;whiteSpace=wrap;html=1;fillColor=#f8cecc;strokeColor=#b85450;startSize=10;gradientColor=#ea6b66;align=center;" vertex="1" parent="1">
          <mxGeometry x="700" y="39" width="120" height="60" as="geometry">
            <mxRectangle x="460" y="50" width="120" height="40" as="alternateBounds" />
          </mxGeometry>
        </mxCell>
        <mxCell id="A1rPBPFfVe5ZtmJl0HQS-3" value="Styrol" style="text;html=1;strokeColor=none;fillColor=none;align=center;verticalAlign=middle;whiteSpace=wrap;rounded=0;fontSize=20;" vertex="1" parent="A1rPBPFfVe5ZtmJl0HQS-2">
          <mxGeometry x="30" y="20" width="60" height="30" as="geometry" />
        </mxCell>
        <mxCell id="A1rPBPFfVe5ZtmJl0HQS-4" value="" style="swimlane;whiteSpace=wrap;html=1;fillColor=#f8cecc;strokeColor=#b85450;startSize=10;gradientColor=#ea6b66;align=center;" vertex="1" parent="1">
          <mxGeometry x="700" y="111" width="120" height="60" as="geometry">
            <mxRectangle x="460" y="50" width="120" height="40" as="alternateBounds" />
          </mxGeometry>
        </mxCell>
        <mxCell id="A1rPBPFfVe5ZtmJl0HQS-5" value="Adipic Acid" style="text;html=1;strokeColor=none;fillColor=none;align=center;verticalAlign=middle;whiteSpace=wrap;rounded=0;fontSize=20;" vertex="1" parent="A1rPBPFfVe5ZtmJl0HQS-4">
          <mxGeometry x="10" y="30" width="100" height="30" as="geometry" />
        </mxCell>
        <mxCell id="A1rPBPFfVe5ZtmJl0HQS-34" value="" style="rounded=0;whiteSpace=wrap;html=1;fillColor=#dae8fc;strokeColor=#6c8ebf;gradientColor=#7ea6e0;" vertex="1" parent="A1rPBPFfVe5ZtmJl0HQS-4">
          <mxGeometry y="12" width="120" height="8" as="geometry" />
        </mxCell>
        <mxCell id="A1rPBPFfVe5ZtmJl0HQS-36" value="" style="rounded=0;whiteSpace=wrap;html=1;fillColor=#d5e8d4;strokeColor=#82b366;" vertex="1" parent="A1rPBPFfVe5ZtmJl0HQS-4">
          <mxGeometry y="21" width="120" height="8" as="geometry" />
        </mxCell>
        <mxCell id="A1rPBPFfVe5ZtmJl0HQS-6" value="" style="endArrow=classic;html=1;rounded=0;exitX=1;exitY=0.5;exitDx=0;exitDy=0;entryX=0;entryY=0.5;entryDx=0;entryDy=0;fillColor=#f8cecc;strokeColor=#EB6B66;strokeWidth=3;" edge="1" parent="1" source="AAtS-gTGmYYsvnQiRssh-50" target="A1rPBPFfVe5ZtmJl0HQS-2">
          <mxGeometry width="50" height="50" relative="1" as="geometry">
            <mxPoint x="410" y="80" as="sourcePoint" />
            <mxPoint x="489" y="80" as="targetPoint" />
          </mxGeometry>
        </mxCell>
        <mxCell id="A1rPBPFfVe5ZtmJl0HQS-7" value="" style="endArrow=classic;html=1;rounded=0;exitX=1;exitY=0.5;exitDx=0;exitDy=0;entryX=0;entryY=0.5;entryDx=0;entryDy=0;fillColor=#f8cecc;strokeColor=#EB6B66;strokeWidth=3;" edge="1" parent="1" source="AAtS-gTGmYYsvnQiRssh-52" target="A1rPBPFfVe5ZtmJl0HQS-4">
          <mxGeometry width="50" height="50" relative="1" as="geometry">
            <mxPoint x="609" y="80" as="sourcePoint" />
            <mxPoint x="710" y="79" as="targetPoint" />
          </mxGeometry>
        </mxCell>
        <mxCell id="A1rPBPFfVe5ZtmJl0HQS-9" value="" style="swimlane;whiteSpace=wrap;html=1;fillColor=#f8cecc;strokeColor=#b85450;startSize=10;gradientColor=#ea6b66;align=center;" vertex="1" parent="1">
          <mxGeometry x="700" y="183" width="120" height="60" as="geometry">
            <mxRectangle x="460" y="50" width="120" height="40" as="alternateBounds" />
          </mxGeometry>
        </mxCell>
        <mxCell id="A1rPBPFfVe5ZtmJl0HQS-10" value="Capro-lactam" style="text;html=1;strokeColor=none;fillColor=none;align=center;verticalAlign=middle;whiteSpace=wrap;rounded=0;fontSize=20;" vertex="1" parent="A1rPBPFfVe5ZtmJl0HQS-9">
          <mxGeometry x="30" y="20" width="60" height="30" as="geometry" />
        </mxCell>
        <mxCell id="A1rPBPFfVe5ZtmJl0HQS-11" value="" style="endArrow=classic;html=1;rounded=0;exitX=1;exitY=0.5;exitDx=0;exitDy=0;entryX=0;entryY=0.5;entryDx=0;entryDy=0;fillColor=#f8cecc;strokeColor=#EB6B66;strokeWidth=3;" edge="1" parent="1" source="AAtS-gTGmYYsvnQiRssh-52" target="A1rPBPFfVe5ZtmJl0HQS-9">
          <mxGeometry width="50" height="50" relative="1" as="geometry">
            <mxPoint x="609" y="162" as="sourcePoint" />
            <mxPoint x="710" y="150" as="targetPoint" />
          </mxGeometry>
        </mxCell>
        <mxCell id="A1rPBPFfVe5ZtmJl0HQS-12" value="" style="swimlane;whiteSpace=wrap;html=1;fillColor=#f8cecc;strokeColor=#b85450;startSize=10;gradientColor=#ea6b66;align=center;" vertex="1" parent="1">
          <mxGeometry x="700" y="261" width="120" height="60" as="geometry">
            <mxRectangle x="460" y="50" width="120" height="40" as="alternateBounds" />
          </mxGeometry>
        </mxCell>
        <mxCell id="A1rPBPFfVe5ZtmJl0HQS-13" value="Phenol" style="text;html=1;strokeColor=none;fillColor=none;align=center;verticalAlign=middle;whiteSpace=wrap;rounded=0;fontSize=20;" vertex="1" parent="A1rPBPFfVe5ZtmJl0HQS-12">
          <mxGeometry x="30" y="20" width="60" height="30" as="geometry" />
        </mxCell>
        <mxCell id="A1rPBPFfVe5ZtmJl0HQS-37" value="" style="rounded=0;whiteSpace=wrap;html=1;fillColor=#d5e8d4;strokeColor=#82b366;" vertex="1" parent="A1rPBPFfVe5ZtmJl0HQS-12">
          <mxGeometry y="12" width="120" height="8" as="geometry" />
        </mxCell>
        <mxCell id="A1rPBPFfVe5ZtmJl0HQS-14" value="" style="swimlane;whiteSpace=wrap;html=1;fillColor=#f8cecc;strokeColor=#b85450;startSize=10;gradientColor=#ea6b66;align=center;" vertex="1" parent="1">
          <mxGeometry x="700" y="341" width="120" height="60" as="geometry">
            <mxRectangle x="460" y="50" width="120" height="40" as="alternateBounds" />
          </mxGeometry>
        </mxCell>
        <mxCell id="A1rPBPFfVe5ZtmJl0HQS-15" value="Acetone" style="text;html=1;strokeColor=none;fillColor=none;align=center;verticalAlign=middle;whiteSpace=wrap;rounded=0;fontSize=20;" vertex="1" parent="A1rPBPFfVe5ZtmJl0HQS-14">
          <mxGeometry x="30" y="20" width="60" height="30" as="geometry" />
        </mxCell>
        <mxCell id="A1rPBPFfVe5ZtmJl0HQS-38" value="" style="rounded=0;whiteSpace=wrap;html=1;fillColor=#d5e8d4;strokeColor=#82b366;" vertex="1" parent="A1rPBPFfVe5ZtmJl0HQS-14">
          <mxGeometry y="11" width="120" height="8" as="geometry" />
        </mxCell>
        <mxCell id="A1rPBPFfVe5ZtmJl0HQS-16" value="" style="endArrow=classic;html=1;rounded=0;exitX=1;exitY=0.5;exitDx=0;exitDy=0;entryX=0;entryY=0.5;entryDx=0;entryDy=0;fillColor=#f8cecc;strokeColor=#EB6B66;strokeWidth=3;" edge="1" parent="1" source="AAtS-gTGmYYsvnQiRssh-54" target="A1rPBPFfVe5ZtmJl0HQS-12">
          <mxGeometry width="50" height="50" relative="1" as="geometry">
            <mxPoint x="609" y="162" as="sourcePoint" />
            <mxPoint x="710" y="223" as="targetPoint" />
          </mxGeometry>
        </mxCell>
        <mxCell id="A1rPBPFfVe5ZtmJl0HQS-17" value="" style="endArrow=classic;html=1;rounded=0;exitX=1;exitY=0.5;exitDx=0;exitDy=0;entryX=0;entryY=0.5;entryDx=0;entryDy=0;fillColor=#f8cecc;strokeColor=#EB6B66;strokeWidth=3;" edge="1" parent="1" source="AAtS-gTGmYYsvnQiRssh-54" target="A1rPBPFfVe5ZtmJl0HQS-14">
          <mxGeometry width="50" height="50" relative="1" as="geometry">
            <mxPoint x="609" y="241" as="sourcePoint" />
            <mxPoint x="710" y="301" as="targetPoint" />
          </mxGeometry>
        </mxCell>
        <mxCell id="A1rPBPFfVe5ZtmJl0HQS-19" value="" style="swimlane;whiteSpace=wrap;html=1;fillColor=#f8cecc;strokeColor=#b85450;startSize=10;gradientColor=#ea6b66;align=center;" vertex="1" parent="1">
          <mxGeometry x="700" y="414" width="120" height="60" as="geometry">
            <mxRectangle x="460" y="50" width="120" height="40" as="alternateBounds" />
          </mxGeometry>
        </mxCell>
        <mxCell id="A1rPBPFfVe5ZtmJl0HQS-20" value="Terephtalic&lt;br style=&quot;font-size: 19px;&quot;&gt;acid" style="text;html=1;strokeColor=none;fillColor=none;align=center;verticalAlign=middle;whiteSpace=wrap;rounded=0;fontSize=19;" vertex="1" parent="A1rPBPFfVe5ZtmJl0HQS-19">
          <mxGeometry x="30" y="25" width="60" height="30" as="geometry" />
        </mxCell>
        <mxCell id="A1rPBPFfVe5ZtmJl0HQS-39" value="" style="rounded=0;whiteSpace=wrap;html=1;fillColor=#d5e8d4;strokeColor=#82b366;" vertex="1" parent="A1rPBPFfVe5ZtmJl0HQS-19">
          <mxGeometry y="9" width="120" height="8" as="geometry" />
        </mxCell>
        <mxCell id="A1rPBPFfVe5ZtmJl0HQS-21" value="Polystyrol" style="rounded=0;whiteSpace=wrap;html=1;fontSize=16;align=center;" vertex="1" parent="1">
          <mxGeometry x="890" y="40" width="250" height="30" as="geometry" />
        </mxCell>
        <mxCell id="A1rPBPFfVe5ZtmJl0HQS-22" value="Nylon&lt;br style=&quot;font-size: 16px;&quot;&gt;Polyurethane" style="rounded=0;whiteSpace=wrap;html=1;fontSize=16;align=center;" vertex="1" parent="1">
          <mxGeometry x="890" y="81" width="250" height="60" as="geometry" />
        </mxCell>
        <mxCell id="A1rPBPFfVe5ZtmJl0HQS-23" value="" style="endArrow=classic;html=1;rounded=0;exitX=1;exitY=0.5;exitDx=0;exitDy=0;entryX=0;entryY=0.5;entryDx=0;entryDy=0;fillColor=#f8cecc;strokeColor=#EB6B66;strokeWidth=3;" edge="1" parent="1" source="A1rPBPFfVe5ZtmJl0HQS-2" target="A1rPBPFfVe5ZtmJl0HQS-21">
          <mxGeometry width="50" height="50" relative="1" as="geometry">
            <mxPoint x="609" y="80" as="sourcePoint" />
            <mxPoint x="710" y="79" as="targetPoint" />
          </mxGeometry>
        </mxCell>
        <mxCell id="A1rPBPFfVe5ZtmJl0HQS-24" value="" style="endArrow=classic;html=1;rounded=0;exitX=1;exitY=0.5;exitDx=0;exitDy=0;entryX=0;entryY=0.5;entryDx=0;entryDy=0;fillColor=#f8cecc;strokeColor=#EB6B66;strokeWidth=3;" edge="1" parent="1" source="A1rPBPFfVe5ZtmJl0HQS-4" target="A1rPBPFfVe5ZtmJl0HQS-22">
          <mxGeometry width="50" height="50" relative="1" as="geometry">
            <mxPoint x="830" y="147" as="sourcePoint" />
            <mxPoint x="910" y="133" as="targetPoint" />
          </mxGeometry>
        </mxCell>
        <mxCell id="A1rPBPFfVe5ZtmJl0HQS-26" value="Nylon-6" style="rounded=0;whiteSpace=wrap;html=1;fontSize=16;align=center;" vertex="1" parent="1">
          <mxGeometry x="890" y="154" width="250" height="30" as="geometry" />
        </mxCell>
        <mxCell id="A1rPBPFfVe5ZtmJl0HQS-27" value="" style="endArrow=classic;html=1;rounded=0;exitX=1;exitY=0.5;exitDx=0;exitDy=0;entryX=0;entryY=0.5;entryDx=0;entryDy=0;fillColor=#f8cecc;strokeColor=#EB6B66;strokeWidth=3;" edge="1" parent="1" source="A1rPBPFfVe5ZtmJl0HQS-9" target="A1rPBPFfVe5ZtmJl0HQS-26">
          <mxGeometry width="50" height="50" relative="1" as="geometry">
            <mxPoint x="830" y="150" as="sourcePoint" />
            <mxPoint x="910" y="150" as="targetPoint" />
          </mxGeometry>
        </mxCell>
        <mxCell id="A1rPBPFfVe5ZtmJl0HQS-28" value="Phenol-Formaldehyde Resins&lt;br style=&quot;font-size: 16px;&quot;&gt;Bisphenol A&lt;br style=&quot;font-size: 16px;&quot;&gt;Salicylic acid" style="rounded=0;whiteSpace=wrap;html=1;fontSize=16;align=center;" vertex="1" parent="1">
          <mxGeometry x="890" y="198" width="250" height="87" as="geometry" />
        </mxCell>
        <mxCell id="A1rPBPFfVe5ZtmJl0HQS-29" value="Methyl-methacrylate&lt;br style=&quot;font-size: 16px;&quot;&gt;solvents&lt;br style=&quot;font-size: 16px;&quot;&gt;Bisphenol A&lt;br style=&quot;font-size: 16px;&quot;&gt;Pharmaceuticals" style="rounded=0;whiteSpace=wrap;html=1;fontSize=16;align=center;" vertex="1" parent="1">
          <mxGeometry x="890" y="298" width="250" height="100" as="geometry" />
        </mxCell>
        <mxCell id="A1rPBPFfVe5ZtmJl0HQS-30" value="Polyester fibres&lt;br style=&quot;font-size: 16px;&quot;&gt;Films" style="rounded=0;whiteSpace=wrap;html=1;fontSize=16;align=center;" vertex="1" parent="1">
          <mxGeometry x="890" y="410" width="250" height="49" as="geometry" />
        </mxCell>
        <mxCell id="A1rPBPFfVe5ZtmJl0HQS-31" value="" style="endArrow=classic;html=1;rounded=0;exitX=1;exitY=0.5;exitDx=0;exitDy=0;fillColor=#f8cecc;strokeColor=#EB6B66;strokeWidth=3;" edge="1" parent="1" source="A1rPBPFfVe5ZtmJl0HQS-12" target="A1rPBPFfVe5ZtmJl0HQS-28">
          <mxGeometry width="50" height="50" relative="1" as="geometry">
            <mxPoint x="830" y="223" as="sourcePoint" />
            <mxPoint x="900" y="215" as="targetPoint" />
          </mxGeometry>
        </mxCell>
        <mxCell id="A1rPBPFfVe5ZtmJl0HQS-32" value="" style="endArrow=classic;html=1;rounded=0;exitX=1;exitY=0.5;exitDx=0;exitDy=0;fillColor=#f8cecc;strokeColor=#EB6B66;strokeWidth=3;entryX=0;entryY=0.5;entryDx=0;entryDy=0;" edge="1" parent="1" source="A1rPBPFfVe5ZtmJl0HQS-14" target="A1rPBPFfVe5ZtmJl0HQS-29">
          <mxGeometry width="50" height="50" relative="1" as="geometry">
            <mxPoint x="830" y="301" as="sourcePoint" />
            <mxPoint x="900" y="300" as="targetPoint" />
          </mxGeometry>
        </mxCell>
        <mxCell id="A1rPBPFfVe5ZtmJl0HQS-33" value="" style="endArrow=classic;html=1;rounded=0;exitX=1;exitY=0.5;exitDx=0;exitDy=0;fillColor=#f8cecc;strokeColor=#EB6B66;strokeWidth=3;entryX=0;entryY=0.5;entryDx=0;entryDy=0;" edge="1" parent="1" source="A1rPBPFfVe5ZtmJl0HQS-19" target="A1rPBPFfVe5ZtmJl0HQS-30">
          <mxGeometry width="50" height="50" relative="1" as="geometry">
            <mxPoint x="830" y="381" as="sourcePoint" />
            <mxPoint x="900" y="420" as="targetPoint" />
          </mxGeometry>
        </mxCell>
        <mxCell id="A1rPBPFfVe5ZtmJl0HQS-41" value="Toluene diisocyanate&lt;br style=&quot;font-size: 16px;&quot;&gt;Foam Polyurenthanes" style="rounded=0;whiteSpace=wrap;html=1;fontSize=16;align=center;" vertex="1" parent="1">
          <mxGeometry x="890" y="470" width="250" height="49" as="geometry" />
        </mxCell>
        <mxCell id="A1rPBPFfVe5ZtmJl0HQS-43" value="MTBL" style="rounded=0;whiteSpace=wrap;html=1;fontSize=16;align=center;" vertex="1" parent="1">
          <mxGeometry x="896" y="531" width="250" height="49" as="geometry" />
        </mxCell>
        <mxCell id="A1rPBPFfVe5ZtmJl0HQS-44" value="Polybutadiene, Neoprene&lt;br style=&quot;font-size: 16px;&quot;&gt;Styrene butadiene rubber" style="rounded=0;whiteSpace=wrap;html=1;fontSize=16;align=center;" vertex="1" parent="1">
          <mxGeometry x="896" y="590" width="250" height="49" as="geometry" />
        </mxCell>
        <mxCell id="A1rPBPFfVe5ZtmJl0HQS-45" value="Antifreeze&lt;br style=&quot;font-size: 16px;&quot;&gt;Polyester files, fibres,&lt;br style=&quot;font-size: 16px;&quot;&gt;Resins" style="rounded=0;whiteSpace=wrap;html=1;fontSize=16;align=center;" vertex="1" parent="1">
          <mxGeometry x="896" y="750" width="250" height="80" as="geometry" />
        </mxCell>
        <mxCell id="A1rPBPFfVe5ZtmJl0HQS-46" value="Polypropylene&lt;br style=&quot;font-size: 16px;&quot;&gt;Polypropylene glycol&lt;br style=&quot;font-size: 16px;&quot;&gt;Propylene glycol" style="rounded=0;whiteSpace=wrap;html=1;fontSize=16;align=center;" vertex="1" parent="1">
          <mxGeometry x="896" y="840" width="250" height="80" as="geometry" />
        </mxCell>
        <mxCell id="A1rPBPFfVe5ZtmJl0HQS-47" value="Acrylic fibres&lt;br style=&quot;font-size: 16px;&quot;&gt;ABS and SA plastics&lt;br style=&quot;font-size: 16px;&quot;&gt;Adiponitril&lt;br style=&quot;font-size: 16px;&quot;&gt;Acrylamide" style="rounded=0;whiteSpace=wrap;html=1;fontSize=16;align=center;" vertex="1" parent="1">
          <mxGeometry x="896" y="940" width="250" height="130" as="geometry" />
        </mxCell>
        <mxCell id="A1rPBPFfVe5ZtmJl0HQS-49" value="" style="endArrow=classic;html=1;rounded=0;fillColor=#f8cecc;strokeColor=#EB6B66;strokeWidth=3;exitX=1;exitY=0.5;exitDx=0;exitDy=0;entryX=0;entryY=0.5;entryDx=0;entryDy=0;" edge="1" parent="1" source="AAtS-gTGmYYsvnQiRssh-63" target="A1rPBPFfVe5ZtmJl0HQS-43">
          <mxGeometry width="50" height="50" relative="1" as="geometry">
            <mxPoint x="410" y="400" as="sourcePoint" />
            <mxPoint x="906" y="585" as="targetPoint" />
          </mxGeometry>
        </mxCell>
        <mxCell id="A1rPBPFfVe5ZtmJl0HQS-50" value="" style="endArrow=classic;html=1;rounded=0;fillColor=#f8cecc;strokeColor=#EB6B66;strokeWidth=3;exitX=1;exitY=0.5;exitDx=0;exitDy=0;entryX=0;entryY=0.5;entryDx=0;entryDy=0;" edge="1" parent="1" source="AAtS-gTGmYYsvnQiRssh-65" target="A1rPBPFfVe5ZtmJl0HQS-44">
          <mxGeometry width="50" height="50" relative="1" as="geometry">
            <mxPoint x="609" y="481" as="sourcePoint" />
            <mxPoint x="906" y="655" as="targetPoint" />
          </mxGeometry>
        </mxCell>
        <mxCell id="A1rPBPFfVe5ZtmJl0HQS-51" value="" style="endArrow=classic;html=1;rounded=0;entryX=0;entryY=0.5;entryDx=0;entryDy=0;fillColor=#dae8fc;strokeColor=#6C8EBF;strokeWidth=3;exitX=1;exitY=0.5;exitDx=0;exitDy=0;" edge="1" parent="1" source="AAtS-gTGmYYsvnQiRssh-93" target="A1rPBPFfVe5ZtmJl0HQS-45">
          <mxGeometry width="50" height="50" relative="1" as="geometry">
            <mxPoint x="609" y="801" as="sourcePoint" />
            <mxPoint x="670" y="750" as="targetPoint" />
          </mxGeometry>
        </mxCell>
        <mxCell id="A1rPBPFfVe5ZtmJl0HQS-52" value="" style="endArrow=classic;html=1;rounded=0;entryX=0;entryY=0.5;entryDx=0;entryDy=0;fillColor=#dae8fc;strokeColor=#6C8EBF;strokeWidth=3;exitX=1;exitY=0.5;exitDx=0;exitDy=0;" edge="1" parent="1" source="AAtS-gTGmYYsvnQiRssh-91" target="A1rPBPFfVe5ZtmJl0HQS-46">
          <mxGeometry width="50" height="50" relative="1" as="geometry">
            <mxPoint x="790" y="750" as="sourcePoint" />
            <mxPoint x="906" y="800" as="targetPoint" />
          </mxGeometry>
        </mxCell>
        <mxCell id="A1rPBPFfVe5ZtmJl0HQS-53" value="" style="endArrow=classic;html=1;rounded=0;entryX=0;entryY=0.5;entryDx=0;entryDy=0;fillColor=#dae8fc;strokeColor=#6C8EBF;strokeWidth=3;exitX=1;exitY=0.5;exitDx=0;exitDy=0;" edge="1" parent="1" source="AAtS-gTGmYYsvnQiRssh-89" target="A1rPBPFfVe5ZtmJl0HQS-47">
          <mxGeometry width="50" height="50" relative="1" as="geometry">
            <mxPoint x="790" y="820" as="sourcePoint" />
            <mxPoint x="906" y="890" as="targetPoint" />
          </mxGeometry>
        </mxCell>
        <mxCell id="A1rPBPFfVe5ZtmJl0HQS-54" value="Polyvinylchloride" style="rounded=0;whiteSpace=wrap;html=1;fontSize=16;align=center;" vertex="1" parent="1">
          <mxGeometry x="896" y="1090" width="250" height="49" as="geometry" />
        </mxCell>
        <mxCell id="A1rPBPFfVe5ZtmJl0HQS-55" value="" style="endArrow=classic;html=1;rounded=0;entryX=0;entryY=0.5;entryDx=0;entryDy=0;fillColor=#dae8fc;strokeColor=#6C8EBF;strokeWidth=3;exitX=1;exitY=0.5;exitDx=0;exitDy=0;" edge="1" parent="1" source="AAtS-gTGmYYsvnQiRssh-87" target="A1rPBPFfVe5ZtmJl0HQS-54">
          <mxGeometry width="50" height="50" relative="1" as="geometry">
            <mxPoint x="790" y="890" as="sourcePoint" />
            <mxPoint x="906" y="1015" as="targetPoint" />
          </mxGeometry>
        </mxCell>
        <mxCell id="A1rPBPFfVe5ZtmJl0HQS-57" value="Urea-Formaldehyde resins&lt;br style=&quot;font-size: 16px;&quot;&gt;Phenol-formaldehyde resins" style="rounded=0;whiteSpace=wrap;html=1;fontSize=16;align=center;" vertex="1" parent="1">
          <mxGeometry x="896" y="1166" width="250" height="49" as="geometry" />
        </mxCell>
        <mxCell id="A1rPBPFfVe5ZtmJl0HQS-58" value="Oxigenated gasoline additive" style="rounded=0;whiteSpace=wrap;html=1;fontSize=16;align=center;" vertex="1" parent="1">
          <mxGeometry x="896" y="1240.5" width="250" height="49" as="geometry" />
        </mxCell>
        <mxCell id="A1rPBPFfVe5ZtmJl0HQS-59" value="" style="swimlane;whiteSpace=wrap;html=1;fillColor=#d5e8d4;strokeColor=#82b366;startSize=10;gradientColor=#97d077;fontSize=16;align=center;" vertex="1" parent="1">
          <mxGeometry x="896" y="1310" width="104" height="60" as="geometry">
            <mxRectangle x="460" y="50" width="120" height="40" as="alternateBounds" />
          </mxGeometry>
        </mxCell>
        <mxCell id="A1rPBPFfVe5ZtmJl0HQS-60" value="Vinyl-acetate" style="text;html=1;strokeColor=none;fillColor=none;align=center;verticalAlign=middle;whiteSpace=wrap;rounded=0;fontSize=16;" vertex="1" parent="A1rPBPFfVe5ZtmJl0HQS-59">
          <mxGeometry x="30" y="26" width="60" height="30" as="geometry" />
        </mxCell>
        <mxCell id="A1rPBPFfVe5ZtmJl0HQS-61" value="" style="rounded=0;whiteSpace=wrap;html=1;fillColor=#dae8fc;strokeColor=#6c8ebf;gradientColor=#7ea6e0;fontSize=16;align=center;" vertex="1" parent="A1rPBPFfVe5ZtmJl0HQS-59">
          <mxGeometry y="12" width="100" height="8" as="geometry" />
        </mxCell>
        <mxCell id="A1rPBPFfVe5ZtmJl0HQS-62" value="Polyvinylacetate&lt;br style=&quot;font-size: 16px;&quot;&gt;Polyvinyl alcohol&lt;br style=&quot;font-size: 16px;&quot;&gt;Polyvinyl butryral" style="rounded=0;whiteSpace=wrap;html=1;fontSize=16;align=center;" vertex="1" parent="1">
          <mxGeometry x="1020" y="1310" width="130" height="80" as="geometry" />
        </mxCell>
        <mxCell id="A1rPBPFfVe5ZtmJl0HQS-63" value="Ammonium nitrate&lt;br style=&quot;font-size: 16px;&quot;&gt;Adipic acid&lt;br style=&quot;font-size: 16px;&quot;&gt;Fertilizers, Explosives" style="rounded=0;whiteSpace=wrap;html=1;fontSize=16;align=center;" vertex="1" parent="1">
          <mxGeometry x="900" y="1410" width="250" height="80" as="geometry" />
        </mxCell>
        <mxCell id="A1rPBPFfVe5ZtmJl0HQS-64" value="Phosphate fertilizer&lt;br style=&quot;font-size: 16px;&quot;&gt;Ammoium sulfate fertilizer&lt;br style=&quot;font-size: 16px;&quot;&gt;Refining, leaching" style="rounded=0;whiteSpace=wrap;html=1;fontSize=16;align=center;" vertex="1" parent="1">
          <mxGeometry x="904" y="1510" width="250" height="80" as="geometry" />
        </mxCell>
        <mxCell id="A1rPBPFfVe5ZtmJl0HQS-65" value="" style="swimlane;whiteSpace=wrap;html=1;fillColor=#dae8fc;strokeColor=#6c8ebf;startSize=10;gradientColor=#7ea6e0;" vertex="1" parent="1">
          <mxGeometry x="660" y="1047" width="120" height="60" as="geometry">
            <mxRectangle x="460" y="50" width="120" height="40" as="alternateBounds" />
          </mxGeometry>
        </mxCell>
        <mxCell id="A1rPBPFfVe5ZtmJl0HQS-66" value="Form-aldehyde" style="text;html=1;strokeColor=none;fillColor=none;align=center;verticalAlign=middle;whiteSpace=wrap;rounded=0;fontSize=20;" vertex="1" parent="A1rPBPFfVe5ZtmJl0HQS-65">
          <mxGeometry x="30" y="20" width="60" height="30" as="geometry" />
        </mxCell>
        <mxCell id="A1rPBPFfVe5ZtmJl0HQS-73" value="" style="rounded=0;whiteSpace=wrap;html=1;fillColor=#d5e8d4;strokeColor=#82b366;" vertex="1" parent="A1rPBPFfVe5ZtmJl0HQS-65">
          <mxGeometry y="10" width="120" height="8" as="geometry" />
        </mxCell>
        <mxCell id="A1rPBPFfVe5ZtmJl0HQS-67" value="" style="swimlane;whiteSpace=wrap;html=1;fillColor=#dae8fc;strokeColor=#6c8ebf;startSize=10;gradientColor=#7ea6e0;" vertex="1" parent="1">
          <mxGeometry x="660" y="1120" width="120" height="60" as="geometry">
            <mxRectangle x="460" y="50" width="120" height="40" as="alternateBounds" />
          </mxGeometry>
        </mxCell>
        <mxCell id="A1rPBPFfVe5ZtmJl0HQS-68" value="MTBE" style="text;html=1;strokeColor=none;fillColor=none;align=center;verticalAlign=middle;whiteSpace=wrap;rounded=0;fontSize=20;" vertex="1" parent="A1rPBPFfVe5ZtmJl0HQS-67">
          <mxGeometry x="30" y="20" width="60" height="30" as="geometry" />
        </mxCell>
        <mxCell id="A1rPBPFfVe5ZtmJl0HQS-75" value="" style="rounded=0;whiteSpace=wrap;html=1;fillColor=#f8cecc;strokeColor=#b85450;" vertex="1" parent="A1rPBPFfVe5ZtmJl0HQS-67">
          <mxGeometry y="11" width="120" height="8" as="geometry" />
        </mxCell>
        <mxCell id="A1rPBPFfVe5ZtmJl0HQS-70" value="" style="swimlane;whiteSpace=wrap;html=1;fillColor=#dae8fc;strokeColor=#6c8ebf;startSize=10;gradientColor=#7ea6e0;" vertex="1" parent="1">
          <mxGeometry x="660" y="1200" width="120" height="60" as="geometry">
            <mxRectangle x="460" y="50" width="120" height="40" as="alternateBounds" />
          </mxGeometry>
        </mxCell>
        <mxCell id="A1rPBPFfVe5ZtmJl0HQS-71" value="Acetic Acid" style="text;html=1;strokeColor=none;fillColor=none;align=center;verticalAlign=middle;whiteSpace=wrap;rounded=0;fontSize=20;" vertex="1" parent="A1rPBPFfVe5ZtmJl0HQS-70">
          <mxGeometry x="30" y="20" width="60" height="30" as="geometry" />
        </mxCell>
        <mxCell id="A1rPBPFfVe5ZtmJl0HQS-74" value="" style="rounded=0;whiteSpace=wrap;html=1;fillColor=#d5e8d4;strokeColor=#82b366;" vertex="1" parent="A1rPBPFfVe5ZtmJl0HQS-70">
          <mxGeometry y="7" width="120" height="8" as="geometry" />
        </mxCell>
        <mxCell id="A1rPBPFfVe5ZtmJl0HQS-72" value="" style="endArrow=classic;html=1;rounded=0;fillColor=#d5e8d4;strokeColor=#82b366;strokeWidth=3;entryX=0;entryY=0.5;entryDx=0;entryDy=0;" edge="1" parent="1" target="AAtS-gTGmYYsvnQiRssh-39">
          <mxGeometry width="50" height="50" relative="1" as="geometry">
            <mxPoint x="580" y="1340" as="sourcePoint" />
            <mxPoint x="466" y="1349" as="targetPoint" />
          </mxGeometry>
        </mxCell>
        <mxCell id="A1rPBPFfVe5ZtmJl0HQS-76" value="" style="endArrow=classic;html=1;rounded=0;fillColor=#d5e8d4;strokeColor=#82b366;strokeWidth=3;entryX=-0.006;entryY=0.645;entryDx=0;entryDy=0;entryPerimeter=0;exitX=1;exitY=0.5;exitDx=0;exitDy=0;" edge="1" parent="1" source="AAtS-gTGmYYsvnQiRssh-39" target="A1rPBPFfVe5ZtmJl0HQS-63">
          <mxGeometry width="50" height="50" relative="1" as="geometry">
            <mxPoint x="590" y="1350" as="sourcePoint" />
            <mxPoint x="670" y="1351" as="targetPoint" />
          </mxGeometry>
        </mxCell>
        <mxCell id="A1rPBPFfVe5ZtmJl0HQS-77" value="" style="endArrow=classic;html=1;rounded=0;fillColor=#dae8fc;strokeColor=#6C8EBF;strokeWidth=3;exitX=1;exitY=0.5;exitDx=0;exitDy=0;entryX=0;entryY=0.5;entryDx=0;entryDy=0;" edge="1" parent="1" source="AAtS-gTGmYYsvnQiRssh-42" target="A1rPBPFfVe5ZtmJl0HQS-65">
          <mxGeometry width="50" height="50" relative="1" as="geometry">
            <mxPoint x="410" y="1146" as="sourcePoint" />
            <mxPoint x="630" y="1070" as="targetPoint" />
          </mxGeometry>
        </mxCell>
        <mxCell id="A1rPBPFfVe5ZtmJl0HQS-78" value="" style="endArrow=classic;html=1;rounded=0;fillColor=#dae8fc;strokeColor=#6C8EBF;strokeWidth=3;entryX=0;entryY=0.5;entryDx=0;entryDy=0;exitX=1;exitY=0.5;exitDx=0;exitDy=0;" edge="1" parent="1" source="AAtS-gTGmYYsvnQiRssh-42" target="A1rPBPFfVe5ZtmJl0HQS-67">
          <mxGeometry width="50" height="50" relative="1" as="geometry">
            <mxPoint x="590" y="1130" as="sourcePoint" />
            <mxPoint x="670" y="1087" as="targetPoint" />
          </mxGeometry>
        </mxCell>
        <mxCell id="A1rPBPFfVe5ZtmJl0HQS-79" value="" style="endArrow=classic;html=1;rounded=0;fillColor=#dae8fc;strokeColor=#6C8EBF;strokeWidth=3;entryX=0;entryY=0.5;entryDx=0;entryDy=0;exitX=1;exitY=0.5;exitDx=0;exitDy=0;" edge="1" parent="1" source="AAtS-gTGmYYsvnQiRssh-42" target="A1rPBPFfVe5ZtmJl0HQS-70">
          <mxGeometry width="50" height="50" relative="1" as="geometry">
            <mxPoint x="590" y="1146" as="sourcePoint" />
            <mxPoint x="670" y="1160" as="targetPoint" />
          </mxGeometry>
        </mxCell>
        <mxCell id="A1rPBPFfVe5ZtmJl0HQS-80" value="" style="endArrow=classic;html=1;rounded=0;fillColor=#dae8fc;strokeColor=#6C8EBF;strokeWidth=3;exitX=1;exitY=0.5;exitDx=0;exitDy=0;entryX=0;entryY=0.5;entryDx=0;entryDy=0;" edge="1" parent="1" source="A1rPBPFfVe5ZtmJl0HQS-65" target="A1rPBPFfVe5ZtmJl0HQS-57">
          <mxGeometry width="50" height="50" relative="1" as="geometry">
            <mxPoint x="595" y="1146" as="sourcePoint" />
            <mxPoint x="670" y="1087" as="targetPoint" />
          </mxGeometry>
        </mxCell>
        <mxCell id="A1rPBPFfVe5ZtmJl0HQS-81" value="" style="endArrow=classic;html=1;rounded=0;fillColor=#dae8fc;strokeColor=#6C8EBF;strokeWidth=3;exitX=1;exitY=0.5;exitDx=0;exitDy=0;entryX=0;entryY=0.5;entryDx=0;entryDy=0;" edge="1" parent="1" source="A1rPBPFfVe5ZtmJl0HQS-67" target="A1rPBPFfVe5ZtmJl0HQS-58">
          <mxGeometry width="50" height="50" relative="1" as="geometry">
            <mxPoint x="790" y="1087" as="sourcePoint" />
            <mxPoint x="906" y="1201" as="targetPoint" />
          </mxGeometry>
        </mxCell>
        <mxCell id="A1rPBPFfVe5ZtmJl0HQS-82" value="" style="endArrow=classic;html=1;rounded=0;fillColor=#dae8fc;strokeColor=#6C8EBF;strokeWidth=3;exitX=1;exitY=0.5;exitDx=0;exitDy=0;entryX=0;entryY=0.5;entryDx=0;entryDy=0;" edge="1" parent="1" source="A1rPBPFfVe5ZtmJl0HQS-70" target="A1rPBPFfVe5ZtmJl0HQS-59">
          <mxGeometry width="50" height="50" relative="1" as="geometry">
            <mxPoint x="790" y="1160" as="sourcePoint" />
            <mxPoint x="906" y="1275" as="targetPoint" />
          </mxGeometry>
        </mxCell>
        <mxCell id="A1rPBPFfVe5ZtmJl0HQS-83" value="" style="endArrow=classic;html=1;rounded=0;fillColor=#dae8fc;strokeColor=#6C8EBF;strokeWidth=3;exitX=1;exitY=0.5;exitDx=0;exitDy=0;entryX=0;entryY=0.5;entryDx=0;entryDy=0;fontSize=16;align=center;" edge="1" parent="1" source="A1rPBPFfVe5ZtmJl0HQS-59" target="A1rPBPFfVe5ZtmJl0HQS-62">
          <mxGeometry width="50" height="50" relative="1" as="geometry">
            <mxPoint x="790" y="1240" as="sourcePoint" />
            <mxPoint x="906" y="1350" as="targetPoint" />
          </mxGeometry>
        </mxCell>
        <mxCell id="A1rPBPFfVe5ZtmJl0HQS-84" value="" style="endArrow=classic;html=1;rounded=0;fillColor=#a20025;strokeColor=#6F0000;strokeWidth=3;entryX=0;entryY=0.5;entryDx=0;entryDy=0;" edge="1" parent="1" target="A1rPBPFfVe5ZtmJl0HQS-64">
          <mxGeometry width="50" height="50" relative="1" as="geometry">
            <mxPoint x="400" y="1460" as="sourcePoint" />
            <mxPoint x="770" y="1510" as="targetPoint" />
          </mxGeometry>
        </mxCell>
        <mxCell id="A1rPBPFfVe5ZtmJl0HQS-85" value="TEXTILES&lt;br&gt;carpets, fibres. fabrics, &lt;br&gt;fabric coating&lt;br&gt;foam cushions&lt;br&gt;upholstery&lt;br&gt;drapes&lt;br&gt;Lycra, spandex" style="rounded=0;whiteSpace=wrap;html=1;fontSize=16;align=left;" vertex="1" parent="1">
          <mxGeometry x="1380" y="40" width="250" height="160" as="geometry" />
        </mxCell>
        <mxCell id="A1rPBPFfVe5ZtmJl0HQS-87" value="SAFE FOOD SUPPLY&lt;br&gt;Food packaging&lt;br&gt;Preservatives&lt;br&gt;Fertilizers, pesticides&lt;br&gt;Refridgerants,&lt;br&gt;Beverage bottles&lt;br&gt;Appliances&lt;br&gt;Beverage can coatings&lt;br&gt;Vitamins" style="rounded=0;whiteSpace=wrap;html=1;fontSize=16;align=left;" vertex="1" parent="1">
          <mxGeometry x="1380" y="234" width="250" height="197" as="geometry" />
        </mxCell>
        <mxCell id="A1rPBPFfVe5ZtmJl0HQS-88" value="TRANSPORTATION&lt;br&gt;TIres, Anti-freeze&lt;br&gt;Molded plastics&lt;br&gt;Gasoline additives&lt;br&gt;Car seats, belts, hoses&lt;br&gt;wiper fluid, bumpers" style="rounded=0;whiteSpace=wrap;html=1;fontSize=16;align=left;" vertex="1" parent="1">
          <mxGeometry x="1380" y="452.5" width="250" height="147.5" as="geometry" />
        </mxCell>
        <mxCell id="A1rPBPFfVe5ZtmJl0HQS-89" value="HOUSING&lt;br&gt;paints, resins, coatings, varnishes&lt;br&gt;cement&lt;br&gt;fibreglass insulation&lt;br&gt;flame retardant, adhesives" style="rounded=0;whiteSpace=wrap;html=1;fontSize=16;align=left;" vertex="1" parent="1">
          <mxGeometry x="1380" y="619" width="250" height="120" as="geometry" />
        </mxCell>
        <mxCell id="A1rPBPFfVe5ZtmJl0HQS-91" value="RECREATION&lt;br&gt;Athletic footwear, wet suits&lt;br&gt;protective equipment&lt;br&gt;bicycle parts&lt;br&gt;camera, filme, tapes, CDs&lt;br&gt;camping gear, golf equipment" style="rounded=0;whiteSpace=wrap;html=1;fontSize=16;align=left;" vertex="1" parent="1">
          <mxGeometry x="1380" y="761" width="250" height="120" as="geometry" />
        </mxCell>
        <mxCell id="A1rPBPFfVe5ZtmJl0HQS-92" value="COMMUNICATIONS&lt;br&gt;Molded Plastics&lt;br&gt;Computer, phone casings,&lt;br&gt;optical fibre coatings&lt;br&gt;liquid crystal displays&lt;br&gt;pens, pencils, inks, dyes&lt;br&gt;paper products" style="rounded=0;whiteSpace=wrap;html=1;fontSize=16;align=left;" vertex="1" parent="1">
          <mxGeometry x="1380" y="910" width="250" height="170" as="geometry" />
        </mxCell>
        <mxCell id="A1rPBPFfVe5ZtmJl0HQS-93" value="HEALTH AND HYGIENE&lt;br&gt;plastic eyeglasses, cosmetics&lt;br&gt;detergents, suntan lotion&lt;br&gt;pharmaceuticals (e.g. aspirin)&lt;br&gt;medical , dental products&lt;br&gt;disifnectant" style="rounded=0;whiteSpace=wrap;html=1;fontSize=16;align=left;" vertex="1" parent="1">
          <mxGeometry x="1380" y="1100" width="250" height="140" as="geometry" />
        </mxCell>
        <mxCell id="A1rPBPFfVe5ZtmJl0HQS-95" value="" style="ellipse;whiteSpace=wrap;html=1;" vertex="1" parent="1">
          <mxGeometry x="1190" y="361" width="20" height="20" as="geometry" />
        </mxCell>
      </root>
    </mxGraphModel>
  </diagram>
</mxfile>
